{"title":"[MARATHI] Chitai XViD MP4 YTRip Natak (RRG)","uid":7976979,"size":321464762,"categoryP":"video","categoryS":"movies","magnet":"?xt=urn:btih:a3c28184319938e7fa855eb1561c1927ea83e2df&amp;dn=%5BMARATHI%5D+Chitai+XViD+MP4+YTRip+Natak+%28RRG%29&amp;tr=udp%3A%2F%2Ftracker.openbittorrent.com%3A80&amp;tr=udp%3A%2F%2Fopen.demonii.com%3A1337&amp;tr=udp%3A%2F%2Ftracker.coppersurfer.tk%3A6969&amp;tr=udp%3A%2F%2Fexodus.desync.com%3A6969","seeders":0,"leechers":2,"uploader":"SJonam","files":1,"time":1357028992,"description":" &lt;a href=&quot;http://desibbrg.org/images/66952052392581364616.gif&quot; rel=&quot;nofollow&quot; target=&quot;_NEW&quot;&gt;http://desibbrg.org/images/66952052392581364616.gif&lt;/a&gt; &lt;a href=&quot;\nhttp://desibbrg.org/images/18394543501517976762.jpg&quot; rel=&quot;nofollow&quot; target=&quot;_NEW&quot;&gt;\nhttp://desibbrg.org/images/18394543501517976762.jpg&lt;/a&gt; &lt;a href=&quot;\nhttp://desibbrg.org/images/29177638493064637109.jpg&quot; rel=&quot;nofollow&quot; target=&quot;_NEW&quot;&gt;\nhttp://desibbrg.org/images/29177638493064637109.jpg&lt;/a&gt; &lt;a href=&quot;\nhttp://desibbrg.org/images/19208670414101178905.jpg&quot; rel=&quot;nofollow&quot; target=&quot;_NEW&quot;&gt;\nhttp://desibbrg.org/images/19208670414101178905.jpg&lt;/a&gt; &lt;a href=&quot;\nhttp://desibbrg.org/images/67945372756722857138.jpg&quot; rel=&quot;nofollow&quot; target=&quot;_NEW&quot;&gt;\nhttp://desibbrg.org/images/67945372756722857138.jpg&lt;/a&gt; &lt;a href=&quot;\nhttp://desibbrg.org/images/02402385601019226652.jpg&quot; rel=&quot;nofollow&quot; target=&quot;_NEW&quot;&gt;\nhttp://desibbrg.org/images/02402385601019226652.jpg&lt;/a&gt;\n\nInfo - \nStarring: Ravindra Deodhar, Sunil Dev, Raju Bavadekar, Sunil Jog, Ganesh Karke, Sachin Joshi, Vibhavari Deshpande, Madhuri Mate. \n\nWriter: Pradeep Tungare. \n\nDirector: Nikhil Mehendale\n\nSynopsis: This is a powerful play presenting the meaning of life and death through the eyes of people working in a Crematorium. It is the last day of work for Kardile who is retiring from his duty of incinerating corpse's at the Crematorium. Joshi and More want to celebrate the occasion and the symmetry's Guruji is on the way to bid farewell to Kardile. In his entire career, Kardile has burned 12,994 bodies and this being his last day, Joshi and More want him to make a record of 13,000. As the day passes the four men face the tragedies of the past and question their existence while a group of protesters revolt to shut down the Crematorium. How does the day end in the crematorium? Can Kardile make the record?\n\nMedia Info - \nGeneral\nComplete name                  : Chitai - Marathi Natak.mp4\nFormat                         : MPEG-4\nFormat profile                 : Base Media / Version 2\nCodec ID                       : mp42\nFile size                      : 307 MiB\nDuration                       : 1h 38mn\nOverall bit rate mode          : Variable\nOverall bit rate               : 433 Kbps\n\nVideo\nID                             : 1\nFormat                         : AVC\nFormat/Info                    : Advanced Video Codec\nFormat profile                 : &lt;a class=&quot;__cf_email__&quot; href=&quot;/cdn-cgi/l/email-protection&quot; data-cfemail=&quot;77351604121b1e1912373b455946&quot;&gt;[email&amp;#160;protected]&lt;/a&gt;&lt;script cf-hash='f9e31' type=&quot;text/javascript&quot;&gt;\n/* &lt;![CDATA[ */!function(){try{var t=&quot;currentScript&quot;in document?document.currentScript:function(){for(var t=document.getElementsByTagName(&quot;script&quot;),e=t.length;e--;)if(t[e].getAttribute(&quot;cf-hash&quot;))return t[e]}();if(t&amp;&amp;t.previousSibling){var e,r,n,i,c=t.previousSibling,a=c.getAttribute(&quot;data-cfemail&quot;);if(a){for(e=&quot;&quot;,r=parseInt(a.substr(0,2),16),n=2;a.length-n;n+=2)i=parseInt(a.substr(n,2),16)^r,e+=String.fromCharCode(i);e=document.createTextNode(e),c.parentNode.replaceChild(e,c)}}}catch(u){}}();/* ]]&gt; */&lt;/script&gt;\nFormat settings, CABAC         : No\nFormat settings, ReFrames      : 1 frame\nFormat settings, GOP           : M=1, N=30\nCodec ID                       : avc1\nCodec ID/Info                  : Advanced Video Coding\nDuration                       : 1h 38mn\nBit rate                       : 335 Kbps\nMaximum bit rate               : 970 Kbps\nWidth                          : 480 pixels\nHeight                         : 360 pixels\nDisplay aspect ratio           : 4:3\nFrame rate mode                : Constant\nFrame rate                     : 25.000 fps\nColor space                    : YUV\nChroma subsampling             : 4:2:0\nBit depth                      : 8 bits\nScan type                      : Progressive\nBits/(Pixel*Frame)             : 0.078\nStream size                    : 237 MiB (77%)\n\nAudio\nID                             : 2\nFormat                         : AAC\nFormat/Info                    : Advanced Audio Codec\nFormat profile                 : LC\nCodec ID                       : 40\nDuration                       : 1h 38mn\nBit rate mode                  : Variable\nBit rate                       : 96.0 Kbps\nMaximum bit rate               : 163 Kbps\nChannel(s)                     : 2 channels\nChannel positions              : Front: L R\nSampling rate                  : 44.1 KHz\nCompression mode               : Lossy\nStream size                    : 67.9 MiB (22%)\n\nRipper : SaketSaket\n\nSeeding 24x7... Extreme Seeding...\n\n\nEnjoy!\n","torrent":{"xt":"urn:btih:a3c28184319938e7fa855eb1561c1927ea83e2df","amp;dn":"%5BMARATHI%5D+Chitai+XViD+MP4+YTRip+Natak+%28RRG%29","amp;tr":["udp%3A%2F%2Ftracker.openbittorrent.com%3A80","udp%3A%2F%2Fopen.demonii.com%3A1337","udp%3A%2F%2Ftracker.coppersurfer.tk%3A6969","udp%3A%2F%2Fexodus.desync.com%3A6969"],"infoHash":"a3c28184319938e7fa855eb1561c1927ea83e2df","infoHashBuffer":{"type":"Buffer","data":[163,194,129,132,49,153,56,231,250,133,94,177,86,28,25,39,234,131,226,223]},"announce":[],"urlList":[]}}